<?xml version="1.0" standalone="no"?>
<!DOCTYPE svg PUBLIC "-//W3C//DTD SVG 20010904//EN"
 "http://www.w3.org/TR/2001/REC-SVG-20010904/DTD/svg10.dtd">
<svg version="1.0" xmlns="http://www.w3.org/2000/svg"
 width="700.000000pt" height="700.000000pt" viewBox="0 0 700.000000 700.000000"
 preserveAspectRatio="xMidYMid meet">
<metadata>
Created by potrace 1.14, written by Peter Selinger 2001-2017
</metadata>
<g transform="translate(0.000000,700.000000) scale(0.100000,-0.100000)"
fill="#000000" stroke="none">
<path d="M3299 6996 c-2 -2 -40 -6 -84 -9 -79 -6 -199 -20 -265 -32 -19 -3
-47 -8 -63 -11 -404 -69 -875 -249 -1232 -472 -320 -200 -615 -460 -870 -766
-185 -223 -392 -568 -515 -861 -71 -169 -169 -482 -194 -620 -14 -76 -27 -142
-31 -165 -5 -23 -11 -70 -21 -145 -25 -202 -25 -686 0 -820 2 -11 7 -47 11
-80 5 -50 22 -135 40 -215 2 -8 13 -56 24 -106 116 -513 391 -1059 740 -1464
72 -84 295 -307 389 -390 236 -207 568 -415 872 -545 36 -15 83 -36 105 -46
120 -54 383 -133 575 -174 111 -23 150 -30 235 -41 22 -3 51 -8 65 -10 140
-25 660 -24 824 1 59 9 167 25 211 30 28 4 113 21 190 40 677 162 1276 510
1750 1016 498 533 813 1200 915 1934 20 142 24 226 25 440 0 214 -10 381 -30
495 -3 14 -12 68 -21 120 -18 107 -46 232 -76 335 -11 39 -21 75 -22 80 -7 36
-77 231 -127 349 -233 550 -627 1060 -1088 1408 -42 32 -80 62 -86 66 -5 4
-44 31 -86 59 -265 179 -556 323 -859 423 -130 43 -345 101 -425 114 -16 3
-70 12 -120 20 -49 8 -115 18 -145 21 -30 4 -68 8 -85 11 -35 5 -521 14 -526
10z"/>
</g>
</svg>
